<svg width="20" height="21" viewBox="0 0 20 21" fill="none" xmlns="http://www.w3.org/2000/svg">
<path d="M5 1H3C2.46957 1 1.96086 1.21071 1.58579 1.58579C1.21071 1.96086 1 2.46957 1 3V17C1 17.5304 1.21071 18.0391 1.58579 18.4142C1.96086 18.7893 2.46957 19 3 19H9M5 1V10L8 7L11 10V1M5 1H11M11 1H15C15.5304 1 16.0391 1.21071 16.4142 1.58579C16.7893 1.96086 17 2.46957 17 3V10M16 14V17M16 17V20M16 17H19M16 17H13" stroke="#30303D" stroke-width="2" stroke-linecap="round" stroke-linejoin="round"/>
</svg>
