<svg width="24" height="24" viewBox="0 0 24 24" fill="none" xmlns="http://www.w3.org/2000/svg">
<path d="M3 9.57333L11.136 3.42613C11.4458 3.19204 11.6008 3.07499 11.7709 3.02987C11.9211 2.99004 12.0789 2.99004 12.2291 3.02987C12.3993 3.07499 12.5542 3.19204 12.864 3.42613L21 9.57333M12 20H16.32C17.3281 20 17.8321 20 18.2172 19.8024C18.5559 19.6285 18.8312 19.3511 19.0038 19.0099C19.2 18.622 19.2 18.1142 19.2 17.0987V8.21333L13.728 4.07893C13.1083 3.61074 12.7985 3.37665 12.4582 3.28641C12.1579 3.20675 11.8421 3.20675 11.5418 3.28641C11.2015 3.37665 10.8917 3.61074 10.272 4.07893L4.8 8.21333V17.0987C4.8 18.1142 4.8 18.622 4.99619 19.0099C5.16876 19.3511 5.44413 19.6285 5.78282 19.8024C6.16786 20 6.67191 20 7.68 20H12ZM12 20V13.2907" stroke="#30303D" stroke-width="2" stroke-linecap="round" stroke-linejoin="round"/>
</svg>
