<svg width="65" height="64" viewBox="0 0 65 64" fill="none" xmlns="http://www.w3.org/2000/svg">
<path d="M40.0782 60.6475C35.6152 65.1104 28.3794 65.1104 23.9165 60.6475L3.34718 40.0782C-1.11573 35.6152 -1.11573 28.3794 3.34718 23.9165L23.9165 3.34718C28.3794 -1.11573 35.6152 -1.11573 40.0782 3.34718L60.6475 23.9165C65.1104 28.3794 65.1104 35.6152 60.6475 40.0782L40.0782 60.6475Z" fill="#0C6DFF"/>
<path opacity="0.6" fill-rule="evenodd" clip-rule="evenodd" d="M64.061 32.0374C64.0713 29.0994 62.9556 26.1582 60.7139 23.9165L40.1446 3.34718C35.6817 -1.11573 28.4458 -1.11573 23.9829 3.34718L3.41359 23.9165C0.0641751 27.2659 -0.771501 32.1772 0.906548 36.306C4.02694 36.69 7.36042 35.3958 9.20872 31.9921L10.5558 29.5113C13.8791 23.3915 22.4759 22.8962 26.48 28.5938L28.0298 30.7991C31.2609 35.3969 38.176 35.0747 40.9656 30.1964C42.9033 26.808 47.6943 26.5534 49.9801 29.7175L51.6127 31.9774C54.9242 36.5613 61.2202 35.887 64.061 32.0374Z" fill="#55D6FF"/>
<path fill-rule="evenodd" clip-rule="evenodd" d="M26.6401 31.1234C26.6401 35.6459 30.3063 39.3121 34.8288 39.3121L34.8288 47.6553C25.6985 47.6553 18.2969 40.2537 18.2969 31.1234C18.2969 21.993 25.6985 14.5915 34.8288 14.5915L34.8288 22.9347C30.3063 22.9347 26.6401 26.6009 26.6401 31.1234Z" fill="white"/>
<path fill-rule="evenodd" clip-rule="evenodd" d="M34.8269 47.6491L34.827 30.3506L43.0918 30.3506L43.0918 47.6491L34.8269 47.6491Z" fill="white"/>
</svg>
