<svg width="139" height="138" viewBox="0 0 139 138" fill="none" xmlns="http://www.w3.org/2000/svg">
<path d="M86.5478 130.594C76.9531 140.189 61.3971 140.189 51.8024 130.594L7.58101 86.3725C-2.01366 76.7778 -2.01366 61.2217 7.58101 51.627L51.8024 7.4055C61.3971 -2.1892 76.9531 -2.1892 86.5478 7.40549L130.769 51.627C140.364 61.2217 140.364 76.7778 130.769 86.3725L86.5478 130.594Z" fill="#1673FE"/>
<path opacity="0.6" fill-rule="evenodd" clip-rule="evenodd" d="M138.108 69.0888C138.131 62.7715 135.732 56.447 130.912 51.627L86.6911 7.40549C77.0964 -2.1892 61.5404 -2.1892 51.9457 7.4055L7.72432 51.627C0.523302 58.828 -1.27319 69.387 2.33485 78.2635C9.04359 79.0896 16.2107 76.3074 20.1845 68.9895L23.0806 63.6561C30.2251 50.4992 48.7071 49.4343 57.3154 61.6836L60.6473 66.4247C67.5938 76.3094 82.4603 75.6167 88.4577 65.129C92.6235 57.8442 102.923 57.297 107.838 64.0994L111.347 68.9577C118.466 78.8118 132 77.3633 138.108 69.0888Z" fill="#55D6FF"/>
<path d="M75.2561 84.7268C65.5354 84.7243 57.656 76.8434 57.656 67.1221C57.656 57.3993 65.5379 49.5174 75.2607 49.5174V31.5806C55.6317 31.5806 39.7192 47.493 39.7192 67.1221C39.7192 86.7511 55.6317 102.664 75.2607 102.664V102.654H93.0244V65.4645H75.2561L75.2561 84.7268Z" fill="white"/>
</svg>
