<svg width="24" height="24" viewBox="0 0 24 24" fill="none" xmlns="http://www.w3.org/2000/svg">
<g clip-path="url(#clip0_6122_2274)">
<path d="M22.5297 10.0999C22.5161 9.0461 22.2945 8.00535 21.8775 7.03746C21.4604 6.06957 20.8563 5.19361 20.0997 4.45992C19.9653 4.34162 19.8016 4.26159 19.6257 4.22816C19.4498 4.19474 19.2681 4.20916 19.0997 4.26992C18.9272 4.33776 18.7768 4.45224 18.6656 4.60058C18.5543 4.74892 18.4865 4.92526 18.4697 5.10992C18.4318 5.46311 18.2563 5.78714 17.9811 6.01176C17.706 6.23639 17.3533 6.34352 16.9997 6.30992C16.3922 5.68386 15.985 4.89101 15.83 4.03252C15.6751 3.17404 15.7794 2.28885 16.1297 1.48992C16.2165 1.33565 16.2608 1.1611 16.2581 0.984103C16.2554 0.807106 16.2057 0.634005 16.1142 0.482484C16.0227 0.330962 15.8926 0.206451 15.7372 0.121668C15.5818 0.0368861 15.4067 -0.0051279 15.2297 -8.1812e-05C10.9197 -8.1812e-05 7.67972 2.40992 6.72972 6.20992C6.47708 6.12233 6.2518 5.97006 6.07635 5.76828C5.90089 5.56651 5.78137 5.32227 5.72972 5.05992C5.70351 4.88429 5.63101 4.71881 5.51967 4.58048C5.40832 4.44215 5.26216 4.33596 5.09618 4.27283C4.93021 4.2097 4.75042 4.1919 4.5753 4.22127C4.40017 4.25063 4.23602 4.3261 4.09972 4.43992C3.16055 5.23416 2.43386 6.2497 1.98519 7.39494C1.53652 8.54017 1.37999 9.77908 1.52972 10.9999C1.65573 11.9735 2.00576 12.9046 2.55232 13.7201C3.09888 14.5356 3.82708 15.2133 4.67972 15.6999C4.71396 15.7167 4.75158 15.7254 4.78972 15.7254C4.82785 15.7254 4.86547 15.7167 4.89972 15.6999C4.93563 15.6871 4.96798 15.6659 4.99406 15.6381C5.02015 15.6102 5.03923 15.5766 5.04972 15.5399C5.18614 15.0705 5.36695 14.6151 5.58972 14.1799C5.62038 14.1249 5.62917 14.0604 5.61434 13.9993C5.59951 13.9381 5.56215 13.8848 5.50972 13.8499C4.96623 13.5103 4.50491 13.0542 4.15905 12.5147C3.81319 11.9752 3.59141 11.3656 3.50972 10.7299C3.36031 9.41229 3.69822 8.08554 4.45972 6.99992C4.84306 7.45745 5.33194 7.81486 5.8842 8.04134C6.43646 8.26782 7.03552 8.35656 7.62972 8.29992C7.85307 8.27728 8.0623 8.18014 8.22374 8.02414C8.38518 7.86814 8.48943 7.66236 8.51972 7.43992C8.66347 6.08218 9.26599 4.81407 10.2278 3.84501C11.1896 2.87595 12.4531 2.26389 13.8097 2.10992C13.6202 3.2206 13.7297 4.36169 14.1269 5.4161C14.524 6.4705 15.1946 7.40025 16.0697 8.10992C16.2181 8.21036 16.3908 8.26908 16.5697 8.27992C17.1459 8.346 17.7295 8.27031 18.2698 8.05943C18.8101 7.84855 19.2906 7.50886 19.6697 7.06992C20.2218 7.974 20.519 9.01064 20.5297 10.0699C20.5477 10.6752 20.4253 11.2764 20.172 11.8264C19.9187 12.3764 19.5414 12.8602 19.0697 13.2399C19.0222 13.2791 18.9908 13.3345 18.9816 13.3954C18.9724 13.4563 18.9859 13.5184 19.0197 13.5699C19.2799 13.9886 19.5009 14.4305 19.6797 14.8899C19.6949 14.9261 19.7181 14.9584 19.7475 14.9844C19.7769 15.0104 19.8119 15.0294 19.8497 15.0399C19.8828 15.0545 19.9186 15.0621 19.9547 15.0621C19.9909 15.0621 20.0266 15.0545 20.0597 15.0399C20.8426 14.4799 21.4768 13.7371 21.9073 12.8762C22.3377 12.0153 22.5514 11.0622 22.5297 10.0999Z" fill="#FF7B7B"/>
<path d="M18.7305 17.75C18.7305 16.5139 18.3639 15.3055 17.6772 14.2777C16.9904 13.2499 16.0143 12.4488 14.8722 11.9758C13.7302 11.5027 12.4735 11.3789 11.2612 11.6201C10.0488 11.8613 8.93513 12.4565 8.06105 13.3306C7.18698 14.2047 6.59172 15.3183 6.35056 16.5307C6.10941 17.7431 6.23318 18.9997 6.70622 20.1418C7.17927 21.2838 7.98035 22.2599 9.00816 22.9467C10.036 23.6334 11.2443 24 12.4805 24C14.1373 23.9974 15.7254 23.338 16.897 22.1665C18.0685 20.995 18.7278 19.4068 18.7305 17.75ZM16.2805 17.75C16.2805 17.9489 16.2015 18.1397 16.0608 18.2803C15.9201 18.421 15.7294 18.5 15.5305 18.5H12.5305C12.3324 18.4974 12.1431 18.4176 12.003 18.2775C11.8629 18.1374 11.7831 17.9481 11.7805 17.75V14.25C11.7805 14.0511 11.8595 13.8603 12.0001 13.7197C12.1408 13.579 12.3316 13.5 12.5305 13.5C12.7294 13.5 12.9201 13.579 13.0608 13.7197C13.2015 13.8603 13.2805 14.0511 13.2805 14.25V16.75C13.2805 16.8163 13.3068 16.8799 13.3537 16.9268C13.4006 16.9737 13.4642 17 13.5305 17H15.5305C15.7294 17 15.9201 17.079 16.0608 17.2197C16.2015 17.3603 16.2805 17.5511 16.2805 17.75Z" fill="#FF7B7B"/>
</g>
<defs>
<clipPath id="clip0_6122_2274">
<rect width="24" height="24" fill="white"/>
</clipPath>
</defs>
</svg>
